<?xml version="1.0" encoding="utf-8"?>
<!-- Generator: Adobe Illustrator 24.0.1, SVG Export Plug-In . SVG Version: 6.00 Build 0)  -->
<svg version="1.1" id="图层_1" xmlns="http://www.w3.org/2000/svg" xmlns:xlink="http://www.w3.org/1999/xlink" x="0px" y="0px"
	 viewBox="0 0 50 50" style="enable-background:new 0 0 50 50;" xml:space="preserve">
<style type="text/css">
	.st0{fill:#E20A24;}
	.st1{fill:#0E0F0F;}
	.st2{fill:#53C7CF;}
</style>
<rect x="33.39" y="9.29" transform="matrix(6.123234e-17 -1 1 6.123234e-17 22.8367 44.412)" class="st0" width="0.47" height="3"/>
<polyline class="st0" points="32.12,10.32 33.61,8.8 35.13,10.29 "/>
<rect x="45.87" y="41" transform="matrix(6.123234e-17 -1 1 6.123234e-17 0.9139 90.9524)" class="st1" width="0.13" height="8.03"/>
<rect x="3.95" y="41" transform="matrix(6.123234e-17 -1 1 6.123234e-17 -41.0047 49.0338)" class="st1" width="0.13" height="8.03"/>
<polygon class="st0" points="39.72,11.02 29.35,11.02 34.54,16.21 "/>
<polygon class="st0" points="6.37,14.95 12.72,14.95 9.54,18.12 "/>
<polygon class="st0" points="6.37,17.07 9.54,20.25 23,6.79 34.54,18.33 39.72,13.14 47.88,21.3 50,21.3 39.72,11.02 34.54,16.21 
	23,4.67 9.54,18.12 6.37,14.95 0.02,21.3 2.14,21.3 "/>
<rect x="20.33" y="16.01" class="st2" width="2.49" height="2.49"/>
<rect x="23.17" y="16.01" class="st2" width="2.49" height="2.49"/>
<rect x="20.33" y="18.81" class="st2" width="2.49" height="2.49"/>
<rect x="23.17" y="18.81" class="st2" width="2.49" height="2.49"/>
<rect x="6.46" y="23.36" class="st1" width="1.31" height="5.32"/>
<rect x="38.23" y="23.36" class="st1" width="1.31" height="5.32"/>
<polygon class="st1" points="48.43,23.36 48.14,23.78 47.49,24.76 46.84,23.78 46.56,23.36 46.29,23.36 46.29,23.36 44.98,23.36 
	44.98,23.36 46.29,25.31 46.7,25.93 46.84,26.12 46.84,26.66 46.84,28.68 48.14,28.68 48.14,26.66 48.14,26.13 48.28,25.93 
	48.69,25.31 50,23.36 "/>
<polygon class="st1" points="41.68,27.37 41.68,23.36 40.37,23.36 40.37,27.37 40.37,28.68 41.68,28.68 44.14,28.68 44.14,27.37 "/>
<polygon class="st1" points="23.61,24.67 23.61,23.36 20.45,23.36 19.15,23.36 19.15,24.67 19.15,25.49 19.15,26.8 19.15,28.68 
	20.45,28.68 20.45,26.8 23.61,26.8 23.61,25.49 20.45,25.49 20.45,24.67 "/>
<path class="st1" d="M29.44,27.26l-0.38-0.94l-1.18-2.95h-1.31l-1.18,2.95l-0.43,1.07l-0.52,1.3h1.31l0.42-1.06h2.1l0.42,1.06h1.31
	L29.44,27.26z M26.71,26.31L27.23,25l0.53,1.31H26.71z"/>
<path class="st1" d="M4.96,27.37c0.23-0.39,0.37-0.85,0.37-1.35c0-1.46-1.19-2.65-2.65-2.65c-1.46,0-2.65,1.19-2.65,2.65
	c0,0.49,0.13,0.95,0.37,1.35c0.46,0.78,1.31,1.31,2.29,1.31h2.95v-1.31H4.96z M1.32,26.03c0-0.74,0.6-1.34,1.34-1.34
	c0.74,0,1.35,0.6,1.35,1.34c0,0.74-0.6,1.35-1.35,1.35C1.93,27.37,1.32,26.77,1.32,26.03z"/>
<polygon class="st1" points="11.93,23.36 11.93,26.35 9.91,23.36 8.61,23.36 8.61,28.68 9.91,28.68 9.91,25.7 11.93,28.68 
	13.23,28.68 13.23,23.36 "/>
<polygon class="st1" points="36.08,23.36 34.77,25.85 34.12,27.1 33.46,25.86 32.16,23.36 32.16,23.36 30.85,23.36 30.85,28.68 
	32.16,28.68 32.16,26.18 33.46,28.68 34.12,28.68 34.77,28.68 36.08,26.18 36.08,28.68 37.39,28.68 37.39,23.36 "/>
<g>
	<rect x="10.62" y="38.23" class="st1" width="10.29" height="1.31"/>
	<polygon class="st1" points="14.64,31.22 13.68,32.53 10.62,32.53 10.62,31.22 	"/>
	<polygon class="st1" points="20.91,31.22 20.91,32.53 14.13,32.53 14.94,31.41 15,31.33 15.08,31.22 	"/>
	<polygon class="st1" points="13.4,32.91 12.45,34.22 10.62,34.22 10.62,32.91 	"/>
	<polygon class="st1" points="20.91,32.91 20.91,34.22 12.9,34.22 13.77,33.02 13.85,32.91 	"/>
	<polygon class="st1" points="12.17,34.61 11.21,35.91 10.62,35.91 10.62,34.61 	"/>
	<polygon class="st1" points="20.91,34.61 20.91,35.91 11.66,35.91 12.53,34.72 12.61,34.61 	"/>
	<polygon class="st1" points="16.61,31.33 16.55,31.41 15.75,32.52 15.74,32.53 15.66,32.64 15.46,32.91 15.38,33.02 14.51,34.22 
		14.43,34.33 14.23,34.61 14.15,34.72 13.28,35.91 13.2,36.02 11.68,38.11 10.62,37.34 11.58,36.02 11.66,35.91 12.53,34.72 
		12.61,34.61 12.82,34.33 12.9,34.22 13.77,33.02 13.85,32.91 14.05,32.64 14.13,32.53 14.94,31.41 15,31.33 15.08,31.22 
		15.74,30.31 15.74,30.3 15.75,30.3 15.75,30.31 16.41,31.22 16.49,31.33 	"/>
	<polygon class="st1" points="20.87,37.34 19.81,38.11 18.29,36.02 18.21,35.91 17.34,34.72 17.26,34.61 17.06,34.33 16.98,34.22 
		16.11,33.02 16.03,32.91 15.83,32.64 15.75,32.53 15.75,32.52 14.94,31.41 15,31.33 15.08,31.22 15.74,30.31 15.75,30.3 
		15.75,30.3 15.75,30.31 16.41,31.22 16.49,31.33 16.55,31.41 17.36,32.53 17.44,32.64 17.64,32.91 17.72,33.02 18.59,34.22 
		18.67,34.33 18.88,34.61 18.96,34.72 19.83,35.91 19.91,36.02 	"/>
	<rect x="13.45" y="36.55" class="st1" width="4.64" height="1.31"/>
	
		<rect x="13.23" y="38.47" transform="matrix(-1.836970e-16 1 -1 -1.836970e-16 54.8936 23.3624)" class="st1" width="5.07" height="1.31"/>
	
		<rect x="10.53" y="40.26" transform="matrix(-1.836970e-16 1 -1 -1.836970e-16 52.1922 29.6428)" class="st1" width="1.49" height="1.31"/>
	
		<rect x="19.51" y="40.26" transform="matrix(-1.836970e-16 1 -1 -1.836970e-16 61.174 20.661)" class="st1" width="1.49" height="1.31"/>
</g>
<g>
	<polygon class="st1" points="38.25,31.23 38.25,32.54 27.96,32.54 27.96,31.23 32,31.23 32,31.36 34.19,31.36 34.19,31.23 	"/>
	<rect x="29.92" y="33" class="st1" width="5.39" height="1.31"/>
	<polygon class="st1" points="27.96,35.63 33.1,33.04 33.69,34.21 27.96,37.09 	"/>
	<polygon class="st1" points="27.96,37.65 34.01,34.61 34.59,35.78 27.96,39.12 	"/>
	<polygon class="st1" points="34.44,35.5 38.24,33.58 38.24,35.05 34.71,36.83 	"/>
	<polygon class="st1" points="27.96,39.82 34.01,36.78 34.59,37.94 27.96,41.28 	"/>
	
		<rect x="27.64" y="31.55" transform="matrix(-1.836970e-16 1 -1 -1.836970e-16 60.816 3.5888)" class="st1" width="1.94" height="1.31"/>
	<rect x="33.1" y="40.35" class="st1" width="1.94" height="1.31"/>
	
		<rect x="31.13" y="37.48" transform="matrix(-1.836970e-16 1 -1 -1.836970e-16 72.7915 3.4777)" class="st1" width="7.05" height="1.31"/>
	
		<rect x="36.62" y="31.55" transform="matrix(-1.836970e-16 1 -1 -1.836970e-16 69.7896 -5.3848)" class="st1" width="1.94" height="1.31"/>
	<polygon class="st1" points="36.73,41.66 34.97,38.61 34.97,35.93 38.24,41.66 	"/>
	<polygon class="st1" points="34.12,31.29 33.1,30.3 32.06,31.29 	"/>
</g>
<g>
	<g>
		<path class="st1" d="M10.66,44.27h0.13l0.02-0.11h0.26l-0.02,0.11h0.44v0.21h-0.47l-0.07,0.46h0.09v-0.3h0.27v0.3h0.2v0.2h-0.2
			v0.2l0.2-0.02v0.21l-0.2,0.02v0.2h-0.27v-0.17l-0.38,0.04V45.4l0.38-0.04v-0.23h-0.12H10.8h-0.14l0.09-0.66h-0.1V44.27z
			 M11.54,44.97l0.63-0.58h-0.61v-0.21h1v0.21l-0.35,0.3h0.12l0.26,0.28h-0.34L12.1,44.8l-0.19,0.17H11.54z M12.24,45.24v0.29h0.35
			v0.21h-1.02v-0.21h0.38v-0.29h-0.38v-0.21h1.02v0.21H12.24z"/>
		<path class="st1" d="M14.35,44.16l-0.02,0.07l0.21,0v0.19h-0.45h-0.14l0.1-0.26H14.35z M14.37,44.77v0.17h0.17v0.19h-0.17v0.35
			c0,0.02,0.01,0.04,0.02,0.05c0.01,0.01,0.03,0.02,0.05,0.02h0.1l-0.09,0.19h-0.1c-0.03,0-0.06-0.01-0.09-0.02
			c-0.03-0.01-0.05-0.03-0.08-0.05c-0.02-0.02-0.04-0.05-0.05-0.08c-0.01-0.03-0.02-0.06-0.02-0.09v-0.36h-0.14v-0.19h0.14v-0.17
			h-0.14v-0.19h0.57v0.19H14.37z M15.65,44.16c0.03,0,0.06,0.01,0.09,0.02s0.05,0.03,0.07,0.05c0.02,0.02,0.04,0.04,0.05,0.07
			s0.02,0.05,0.02,0.08v1.14c0,0.03-0.01,0.06-0.02,0.09c-0.01,0.03-0.03,0.05-0.05,0.07c-0.02,0.02-0.04,0.04-0.07,0.05
			s-0.06,0.02-0.09,0.02h-0.26l0.09-0.2h0.06c0.02,0,0.03,0,0.04-0.01c0.01,0,0.02-0.02,0.02-0.03v-1.08c0-0.02-0.01-0.03-0.02-0.04
			c-0.01-0.01-0.03-0.02-0.04-0.02h-0.61v1.38h-0.28v-1.58H15.65z M14.93,45.5l0.19-0.52l-0.19-0.52h0.28l0.05,0.13l0.05-0.13h0.28
			l-0.19,0.52l0.19,0.52H15.3l-0.05-0.13L15.2,45.5H14.93z"/>
		<path class="st1" d="M17.23,44.16h1.17v0.49c0,0.03-0.01,0.07-0.02,0.09c-0.01,0.03-0.03,0.05-0.05,0.08s-0.05,0.04-0.08,0.05
			c-0.03,0.01-0.06,0.02-0.09,0.02h-0.38l-0.05,0.15h0.64v0.46c0,0.03-0.01,0.06-0.02,0.09c-0.01,0.03-0.03,0.05-0.05,0.08
			c-0.02,0.02-0.05,0.04-0.08,0.05s-0.06,0.02-0.09,0.02H17.7l0.1-0.19h0.23c0.02,0,0.04-0.01,0.05-0.02
			c0.01-0.01,0.02-0.03,0.02-0.05v-0.22h-0.43l-0.15,0.48h-0.29l0.15-0.48h-0.15v-0.22h0.22l0.05-0.15h-0.26V44.16z M17.49,44.71
			h0.58c0.02,0,0.04-0.01,0.05-0.02c0.01-0.01,0.02-0.03,0.02-0.05v-0.3h-0.65V44.71z M18.78,45.44h-0.25v-1.17h0.25V45.44z
			 M18.9,44.16h0.25v1.34c0,0.03-0.01,0.06-0.02,0.09c-0.01,0.03-0.03,0.05-0.05,0.08c-0.02,0.02-0.05,0.04-0.08,0.05
			c-0.03,0.01-0.06,0.02-0.09,0.02h-0.18l0.08-0.22h0.02c0.02,0,0.04-0.01,0.05-0.02c0.01-0.01,0.02-0.03,0.02-0.05V44.16z"/>
		<path class="st1" d="M20.89,44.98v-0.07h-0.33v-0.14h0.33V44.7h-0.12h-0.12h-0.12V44.3v-0.12v-0.02h0.94v0.09v0.05v0.23
			c0,0.05-0.02,0.09-0.05,0.13s-0.08,0.05-0.13,0.05h-0.07h-0.11v0.07h0.34v0.14h-0.34v0.07h0.38v0.14H20.5v-0.14H20.89z
			 M22.42,45.74H20.5v-0.17h0.81v-0.14h-0.74v-0.16h0.74v-0.1h0.3v0.1h0.73v0.16h-0.73v0.14h0.81V45.74z M20.77,44.3v0.08h0.12V44.3
			H20.77z M20.89,44.57v-0.09h-0.12v0.09H20.89z M21.23,44.3h-0.12v0.08h0.12V44.3z M21.18,44.57c0.01,0,0.03,0,0.04-0.01
			c0.01-0.01,0.01-0.02,0.01-0.04v-0.04h-0.12v0.09H21.18z M22.43,44.16l-0.11,0.37h0.11l-0.08,0.36h-0.22l0.05-0.22h-0.13v0.29
			c0,0.05-0.02,0.09-0.05,0.12c-0.03,0.03-0.07,0.05-0.12,0.05h-0.21l0.05-0.14h0.05c0.01,0,0.02,0,0.03-0.01s0.02-0.02,0.02-0.04
			v-0.27h-0.3v-0.14h0.11l-0.05-0.11h0.22l0.05,0.11h0.23l0.07-0.23h-0.01h-0.07h-0.55v-0.14h0.68h0.22H22.43z"/>
	</g>
	<g>
		<path class="st1" d="M26.47,44.63l0.25-0.47h0.32h1.1l0.25,0.47h-0.32l-0.15-0.29h-0.98l-0.15,0.29H26.47z M28.35,45.74h-1.84
			v-0.22h0.77v-0.19h-0.69v-0.22h0.69v-0.17h-0.74v-0.22h1.78v0.22h-0.73v0.17h0.69v0.22h-0.69v0.19h0.77V45.74z"/>
		<path class="st1" d="M29.8,44.16h1.82v0.34c0,0.04-0.02,0.08-0.05,0.12c-0.03,0.03-0.07,0.05-0.11,0.05h-1.38v0.91l-0.07,0.16
			h-0.28l0.07-0.14V44.16z M30.08,44.5h1.24c0.01,0,0.02,0,0.03-0.01c0.01-0.01,0.01-0.02,0.01-0.03v-0.12h-1.29V44.5z M30.72,45.58
			V45.5h-0.47v-0.16h0.47v-0.1h-0.58l0.16-0.34h-0.13v-0.16h1.34v0.16h-0.87l-0.09,0.18h0.64l-0.07-0.12h0.28l0.19,0.32h-0.28
			l-0.02-0.04H31v0.1h0.47v0.16H31v0.08h0.6v0.16h-1.48v-0.16H30.72z"/>
		<path class="st1" d="M34.09,45.27v0.07h0.78v0.16h-0.78v0.08h0.82v0.16h-1.84v-0.16h0.11v-0.24h0.3l-0.01,0.24h0.32v-0.31h-0.72
			v-0.16h1.84v0.16H34.09z M33.44,44.43v-0.04h-0.36v-0.16h0.36v-0.07h0.27v0.07h0.36v0.16h-0.36v0.04h0.36v0.14
			c0,0.03-0.01,0.06-0.03,0.09c-0.01,0.03-0.03,0.05-0.06,0.07c-0.02,0.02-0.05,0.04-0.08,0.05c-0.03,0.01-0.06,0.02-0.09,0.02h-0.1
			v0.25h-0.27V44.8h-0.36v-0.36H33.44z M33.08,45.05l0.08-0.19h0.26l-0.07,0.19H33.08z M33.44,44.66v-0.08h-0.1v0.08H33.44z
			 M33.72,44.58v0.08h0.04c0.02,0,0.04-0.01,0.05-0.02c0.01-0.01,0.02-0.03,0.02-0.05v-0.01H33.72z M34,44.86l0.08,0.19h-0.27
			l-0.07-0.19H34z M34.95,44.4c-0.01,0.04-0.02,0.07-0.03,0.11c-0.01,0.03-0.03,0.07-0.04,0.1c-0.04,0.07-0.08,0.13-0.14,0.18
			c0.07,0.03,0.14,0.05,0.21,0.05v0.21c-0.04,0-0.08,0-0.11,0c-0.04,0-0.07-0.01-0.11-0.02c-0.07-0.02-0.13-0.04-0.2-0.08
			c-0.06,0.03-0.13,0.06-0.2,0.08c-0.04,0.01-0.07,0.01-0.11,0.02c-0.04,0-0.07,0-0.11,0v-0.21c0.07,0,0.14-0.01,0.21-0.05
			c-0.05-0.05-0.09-0.1-0.13-0.16c-0.02-0.03-0.03-0.06-0.04-0.09c-0.01-0.03-0.02-0.06-0.03-0.09h0.27
			c0.01,0.04,0.03,0.08,0.05,0.11c0.01,0.02,0.02,0.04,0.04,0.05s0.03,0.03,0.05,0.05c0.04-0.03,0.07-0.07,0.09-0.12
			c0.03-0.05,0.04-0.09,0.05-0.14h-0.55l0.11-0.24h0.29l-0.02,0.08h0.44L34.95,44.4L34.95,44.4z"/>
		<path class="st1" d="M36.81,44.8l-0.42,0.05v-0.22l0.42-0.05v-0.1l-0.42-0.05v-0.22l0.42,0.05v-0.1h0.3v0.72h-0.3V44.8z
			 M37.5,45.04h0.81v0.21h-1.43l-0.1,0.14h0.11v0.1c0,0.02,0.01,0.04,0.02,0.05c0.01,0.01,0.03,0.02,0.05,0.02h0.3l0.08,0.19h-0.52
			c-0.03,0-0.07-0.01-0.09-0.02c-0.03-0.01-0.05-0.03-0.08-0.05c-0.02-0.02-0.04-0.05-0.05-0.08c-0.01-0.03-0.02-0.06-0.02-0.09
			H36.4l0.19-0.26h-0.19v-0.21h0.81v-0.08h0.3V45.04z M38.04,45.59l0.25,0.15h-0.48l-0.69-0.42h0.47l0.25,0.15l0.1-0.12h0.3
			L38.04,45.59z M37.89,44.16v0.09h0.41v0.22h-0.41v0.2h0.37v0.22h-1.05v-0.22h0.37v-0.2h-0.41v-0.22h0.41v-0.09H37.89z"/>
	</g>
</g>
</svg>
